# xmcd
#
# Track frame offsets:
#	150
#	12493
#	27768
#	39187
#	54383
#	66952
#	83275
#	98485
#	114581
#	133533
#	147737
#	161385
#	176438
#	191935
#	206485
#	220895
#	237226
#	252484
#	268854
#	283989
#	299513
#	311486
#	330315
#
# Disc length: 4643 seconds
#
# Revision: 1
# Processed by: cddbd v1.5.2PL0 Copyright (c) Steve Scherf et al.
# Submitted via: audiograbber 1.83.01
#
DISCID=52122117
DTITLE=Dennis Marsh - Country Songbook
DYEAR=2013
DGENRE=Country
TTITLE0=The Loser
TTITLE1=Room Full Of Roses
TTITLE2=Leave My Mama Out Of This
TTITLE3=Why Do Tears
TTITLE4=I'm Gonna Change Everything
TTITLE5=Rose Can I Share A Bed With You
TTITLE6=Where Am I Gonna Live
TTITLE7=It Keeps Right On A Hurtin'
TTITLE8=Help Me Make It Through The Night
TTITLE9=Tonight The Bottle Let Me Down
TTITLE10=I Overlooked An Orchid
TTITLE11=Can We Try Again
TTITLE12=Faded Love
TTITLE13=Pretty Paper
TTITLE14=Cry Myself To Sleep
TTITLE15=Too Many Memories
TTITLE16=Happy Anniversary
TTITLE17=Let's Chase Each Other Round The Room Tonight
TTITLE18=She Goes Walking Thjrough My Mind
TTITLE19=I'll Leave This World Loving You
TTITLE20=I Taught Her Everything She Knows
TTITLE21=Blue Darling
TTITLE22=Easy
EXTD=
EXTT0=
EXTT1=
EXTT2=
EXTT3=
EXTT4=
EXTT5=
EXTT6=
EXTT7=
EXTT8=
EXTT9=
EXTT10=
EXTT11=
EXTT12=
EXTT13=
EXTT14=
EXTT15=
EXTT16=
EXTT17=
EXTT18=
EXTT19=
EXTT20=
EXTT21=
EXTT22=
PLAYORDER=
